<svg width="102" height="99" viewBox="0 0 102 99" fill="none" xmlns="http://www.w3.org/2000/svg">
<path d="M6.88 55V54.18L9.5 53.88H9.92L12.54 54.18V55H6.88ZM8.7 55C8.72667 54.32 8.74 53.64 8.74 52.96C8.75333 52.28 8.76 51.5933 8.76 50.9C8.76 50.1933 8.76 49.4933 8.76 48.8V47.82C8.76 47.1267 8.76 46.4333 8.76 45.74C8.76 45.0467 8.75333 44.3533 8.74 43.66C8.74 42.9667 8.72667 42.28 8.7 41.6H10.72C10.7067 42.2933 10.6933 42.9867 10.68 43.68C10.6667 44.36 10.66 45.0533 10.66 45.76C10.66 46.4667 10.66 47.2133 10.66 48V48.6C10.66 49.3467 10.66 50.08 10.66 50.8C10.66 51.52 10.6667 52.2267 10.68 52.92C10.6933 53.6133 10.7067 54.3067 10.72 55H8.7ZM17.24 55.2C16.6133 55.2 16.14 55.1067 15.82 54.92C15.5133 54.7333 15.3 54.4 15.18 53.92L14.38 50.72C14.26 50.1733 14.0867 49.7667 13.86 49.5C13.6333 49.22 13.34 49.0333 12.98 48.94C12.6333 48.8467 12.1867 48.8 11.64 48.8H9.72V47.9H12.2C12.92 47.9 13.5133 47.78 13.98 47.54C14.4467 47.3 14.7933 46.9733 15.02 46.56C15.2467 46.1333 15.36 45.6533 15.36 45.12C15.36 44.28 15.1267 43.64 14.66 43.2C14.1933 42.7467 13.4467 42.52 12.42 42.52H9.7V41.6H12.48C14.0133 41.6 15.2067 41.9067 16.06 42.52C16.9133 43.1333 17.34 43.9933 17.34 45.1C17.34 45.66 17.1933 46.1933 16.9 46.7C16.6067 47.2067 16.16 47.6267 15.56 47.96C14.9733 48.2933 14.2333 48.5 13.34 48.58V48.42C13.74 48.4467 14.1 48.5133 14.42 48.62C14.74 48.7267 15.02 48.8867 15.26 49.1C15.5 49.3 15.7067 49.56 15.88 49.88C16.0533 50.2 16.2067 50.5867 16.34 51.04L17.3 54.36L16.62 53.94L18.74 54.18V55C18.6067 55.04 18.46 55.0733 18.3 55.1C18.1533 55.1267 17.9933 55.1467 17.82 55.16C17.6467 55.1867 17.4533 55.2 17.24 55.2ZM6.88 42.42V41.6H9.7V42.72H9.5L6.88 42.42ZM25.172 55.26C24.2387 55.26 23.4187 55.0667 22.712 54.68C22.0187 54.2933 21.4787 53.7333 21.092 53C20.7187 52.2667 20.532 51.3867 20.532 50.36C20.532 49.3333 20.7387 48.44 21.152 47.68C21.5654 46.9067 22.1187 46.3067 22.812 45.88C23.5187 45.4533 24.2854 45.24 25.112 45.24C25.8187 45.24 26.452 45.3933 27.012 45.7C27.572 46.0067 28.0187 46.4467 28.352 47.02C28.6854 47.58 28.852 48.2667 28.852 49.08C28.852 49.3067 28.8387 49.52 28.812 49.72C28.7854 49.9067 28.752 50.0667 28.712 50.2H21.312V49.36H25.892C26.4387 49.36 26.792 49.26 26.952 49.06C27.112 48.86 27.192 48.6133 27.192 48.32C27.192 47.8533 27.1054 47.46 26.932 47.14C26.772 46.82 26.532 46.58 26.212 46.42C25.9054 46.2467 25.5387 46.16 25.112 46.16C24.6587 46.16 24.212 46.2933 23.772 46.56C23.3454 46.8133 22.992 47.2267 22.712 47.8C22.432 48.3733 22.292 49.1467 22.292 50.12C22.292 50.9467 22.4254 51.6467 22.692 52.22C22.9587 52.7933 23.3387 53.2267 23.832 53.52C24.3387 53.8133 24.9387 53.96 25.632 53.96C26.2587 53.96 26.8054 53.86 27.272 53.66C27.752 53.4467 28.192 53.1133 28.592 52.66L29.012 53C28.7454 53.4533 28.4387 53.8533 28.092 54.2C27.7587 54.5333 27.3587 54.7933 26.892 54.98C26.4254 55.1667 25.852 55.26 25.172 55.26ZM34.012 55.26C33.2787 55.26 32.6454 55.0533 32.112 54.64C31.592 54.2133 31.332 53.5867 31.332 52.76C31.332 52.3733 31.412 52.0067 31.572 51.66C31.7454 51.3133 32.072 50.9867 32.552 50.68C33.032 50.36 33.732 50.0667 34.652 49.8C34.9987 49.6933 35.3454 49.5933 35.692 49.5C36.0387 49.3933 36.3787 49.2933 36.712 49.2C37.0587 49.0933 37.4054 48.9933 37.752 48.9V49.62C37.2987 49.7533 36.852 49.8933 36.412 50.04C35.972 50.1867 35.532 50.3333 35.092 50.48C34.492 50.6667 34.052 50.88 33.772 51.12C33.492 51.3467 33.312 51.58 33.232 51.82C33.152 52.0467 33.112 52.2667 33.112 52.48C33.112 53 33.2654 53.3733 33.572 53.6C33.8787 53.8267 34.2587 53.94 34.712 53.94C34.9387 53.94 35.152 53.9067 35.352 53.84C35.5654 53.76 35.832 53.62 36.152 53.42C36.472 53.2067 36.8987 52.9 37.432 52.5L37.712 53.5H37.112C36.712 53.9 36.352 54.2333 36.032 54.5C35.7254 54.7533 35.412 54.94 35.092 55.06C34.7854 55.1933 34.4254 55.26 34.012 55.26ZM38.752 55.2C38.192 55.2 37.7454 55.02 37.412 54.66C37.0787 54.2867 36.912 53.7933 36.912 53.18V53.08V48.58C36.912 47.9267 36.8454 47.4267 36.712 47.08C36.592 46.7333 36.392 46.4933 36.112 46.36C35.832 46.2267 35.472 46.16 35.032 46.16C34.8054 46.16 34.5454 46.1867 34.252 46.24C33.9587 46.28 33.6187 46.3733 33.232 46.52L34.072 45.88L33.572 47.58C33.4787 47.8867 33.3454 48.1267 33.172 48.3C33.012 48.46 32.7987 48.54 32.532 48.54C32.252 48.54 32.032 48.4667 31.872 48.32C31.712 48.1733 31.6187 47.9733 31.592 47.72C31.7787 46.96 32.2187 46.36 32.912 45.92C33.6187 45.4667 34.4787 45.24 35.492 45.24C36.1987 45.24 36.7787 45.36 37.232 45.6C37.6854 45.8267 38.0254 46.1933 38.252 46.7C38.4787 47.2067 38.592 47.88 38.592 48.72V52.98C38.592 53.4067 38.6587 53.7133 38.792 53.9C38.9254 54.0733 39.0987 54.16 39.312 54.16C39.4854 54.16 39.632 54.12 39.752 54.04C39.872 53.96 39.9854 53.8533 40.092 53.72L40.492 54.16C40.252 54.5467 39.9854 54.82 39.692 54.98C39.412 55.1267 39.0987 55.2 38.752 55.2ZM41.9078 55V54.28L44.1478 53.88H44.6078L46.8678 54.28V55H41.9078ZM43.4878 55C43.5011 54.5333 43.5078 54.0667 43.5078 53.6C43.5211 53.1333 43.5278 52.6667 43.5278 52.2C43.5411 51.7333 43.5478 51.2667 43.5478 50.8V42.02L41.9078 41.82V41.1L45.0278 40.2L45.3078 40.36L45.2278 43.22V50.8C45.2278 51.2667 45.2278 51.7333 45.2278 52.2C45.2411 52.6667 45.2478 53.1333 45.2478 53.6C45.2611 54.0667 45.2745 54.5333 45.2878 55H43.4878ZM52.8648 55.3C52.1182 55.3 51.3982 55.2 50.7048 55C50.0115 54.7867 49.4315 54.5333 48.9648 54.24L49.0848 51.44H50.3248L50.8448 54.52L49.5248 53.96V53C49.9382 53.2933 50.3048 53.54 50.6248 53.74C50.9582 53.9267 51.2915 54.0667 51.6248 54.16C51.9582 54.2533 52.3515 54.3 52.8048 54.3C53.4315 54.3 53.9782 54.2067 54.4448 54.02C54.9115 53.8333 55.2715 53.56 55.5248 53.2C55.7782 52.8267 55.9048 52.3867 55.9048 51.88C55.9048 51.4533 55.8182 51.0933 55.6448 50.8C55.4715 50.5067 55.2048 50.2467 54.8448 50.02C54.4848 49.7933 54.0182 49.5733 53.4448 49.36L52.6648 49.04C51.9848 48.7733 51.3848 48.46 50.8648 48.1C50.3448 47.7267 49.9382 47.2867 49.6448 46.78C49.3648 46.2733 49.2248 45.68 49.2248 45C49.2248 44.2267 49.4182 43.5667 49.8048 43.02C50.2048 42.4733 50.7448 42.0533 51.4248 41.76C52.1048 41.4533 52.8715 41.3 53.7248 41.3C54.3915 41.3 54.9982 41.3933 55.5448 41.58C56.0915 41.7667 56.5782 42.02 57.0048 42.34L56.8848 44.96H55.6648L55.1048 41.94L56.4048 42.6V43.6C55.9115 43.12 55.4515 42.7867 55.0248 42.6C54.6115 42.4 54.1382 42.3 53.6048 42.3C53.0982 42.3 52.6382 42.3867 52.2248 42.56C51.8248 42.7333 51.5048 42.9867 51.2648 43.32C51.0248 43.6533 50.9048 44.0667 50.9048 44.56C50.9048 44.9733 50.9915 45.34 51.1648 45.66C51.3515 45.9667 51.6115 46.24 51.9448 46.48C52.2782 46.72 52.6848 46.9333 53.1648 47.12L53.9648 47.42C54.8448 47.7533 55.5515 48.12 56.0848 48.52C56.6182 48.9067 57.0048 49.34 57.2448 49.82C57.4848 50.3 57.6048 50.86 57.6048 51.5C57.6048 52.2867 57.3982 52.9667 56.9848 53.54C56.5848 54.1 56.0315 54.5333 55.3248 54.84C54.6182 55.1467 53.7982 55.3 52.8648 55.3ZM61.6839 46.56V45.5H65.2639V46.56H61.6839ZM63.1039 55.26C62.4106 55.26 61.8572 55.0733 61.4439 54.7C61.0306 54.3267 60.8239 53.7533 60.8239 52.98C60.8239 52.7267 60.8239 52.48 60.8239 52.24C60.8372 51.9867 60.8439 51.6667 60.8439 51.28V46.56H59.1839V45.68L61.6639 45.38L60.8439 46.04L61.4839 42.78H62.6839L62.5439 45.9V46.3V52.76C62.5439 53.2667 62.6439 53.64 62.8439 53.88C63.0439 54.1067 63.3106 54.22 63.6439 54.22C63.8706 54.22 64.0839 54.1733 64.2839 54.08C64.4972 53.9867 64.7306 53.8533 64.9839 53.68L65.4639 54.2C65.2906 54.4267 65.0839 54.62 64.8439 54.78C64.6039 54.94 64.3372 55.06 64.0439 55.14C63.7639 55.22 63.4506 55.26 63.1039 55.26ZM71.7878 55.26C71.0145 55.26 70.2745 55.08 69.5678 54.72C68.8745 54.3467 68.3078 53.7933 67.8678 53.06C67.4278 52.3133 67.2078 51.3933 67.2078 50.3C67.2078 49.1933 67.4278 48.2667 67.8678 47.52C68.3078 46.76 68.8745 46.1933 69.5678 45.82C70.2745 45.4333 71.0145 45.24 71.7878 45.24C72.5611 45.24 73.2945 45.4333 73.9878 45.82C74.6945 46.1933 75.2678 46.76 75.7078 47.52C76.1611 48.2667 76.3878 49.1933 76.3878 50.3C76.3878 51.3933 76.1611 52.3133 75.7078 53.06C75.2678 53.7933 74.6945 54.3467 73.9878 54.72C73.2945 55.08 72.5611 55.26 71.7878 55.26ZM71.7878 54.36C72.3611 54.36 72.8478 54.2067 73.2478 53.9C73.6478 53.5933 73.9545 53.14 74.1678 52.54C74.3811 51.94 74.4878 51.1933 74.4878 50.3C74.4878 49.3933 74.3811 48.6333 74.1678 48.02C73.9545 47.4067 73.6478 46.9467 73.2478 46.64C72.8478 46.32 72.3611 46.16 71.7878 46.16C71.2145 46.16 70.7278 46.32 70.3278 46.64C69.9278 46.9467 69.6211 47.4067 69.4078 48.02C69.2078 48.6333 69.1078 49.3933 69.1078 50.3C69.1078 51.1933 69.2078 51.94 69.4078 52.54C69.6211 53.14 69.9278 53.5933 70.3278 53.9C70.7278 54.2067 71.2145 54.36 71.7878 54.36ZM78.9244 55V54.28L81.1044 53.88H81.6044L83.7844 54.28V55H78.9244ZM80.3444 55C80.3577 54.6933 80.3644 54.2933 80.3644 53.8C80.3777 53.2933 80.3844 52.7733 80.3844 52.24C80.3977 51.6933 80.4044 51.2133 80.4044 50.8V49.84C80.4044 49.4667 80.3977 49.1467 80.3844 48.88C80.3844 48.6 80.3777 48.34 80.3644 48.1C80.3644 47.86 80.3577 47.6067 80.3444 47.34L78.7644 47.16V46.46L81.5644 45.24L81.8644 45.44L82.1044 47.94V47.98V50.8C82.1044 51.2133 82.1044 51.6933 82.1044 52.24C82.1177 52.7733 82.1244 53.2933 82.1244 53.8C82.1377 54.2933 82.151 54.6933 82.1644 55H80.3444ZM82.0644 49.44L81.7644 48.08H81.9844C82.1977 47.48 82.4644 46.9733 82.7844 46.56C83.1044 46.1333 83.451 45.8067 83.8244 45.58C84.211 45.3533 84.591 45.24 84.9644 45.24C85.271 45.24 85.5577 45.3067 85.8244 45.44C86.091 45.5733 86.2844 45.7533 86.4044 45.98C86.4044 46.4467 86.3044 46.8067 86.1044 47.06C85.9177 47.3133 85.6244 47.44 85.2244 47.44C84.9977 47.44 84.7844 47.4 84.5844 47.32C84.3844 47.2267 84.191 47.1 84.0044 46.94L83.4644 46.46L84.4444 46.28C83.831 46.6 83.3377 47.02 82.9644 47.54C82.591 48.0467 82.291 48.68 82.0644 49.44ZM92.6861 55.26C91.7528 55.26 90.9328 55.0667 90.2261 54.68C89.5328 54.2933 88.9928 53.7333 88.6061 53C88.2328 52.2667 88.0461 51.3867 88.0461 50.36C88.0461 49.3333 88.2528 48.44 88.6661 47.68C89.0794 46.9067 89.6328 46.3067 90.3261 45.88C91.0328 45.4533 91.7994 45.24 92.6261 45.24C93.3328 45.24 93.9661 45.3933 94.5261 45.7C95.0861 46.0067 95.5328 46.4467 95.8661 47.02C96.1994 47.58 96.3661 48.2667 96.3661 49.08C96.3661 49.3067 96.3528 49.52 96.3261 49.72C96.2994 49.9067 96.2661 50.0667 96.2261 50.2H88.8261V49.36H93.4061C93.9528 49.36 94.3061 49.26 94.4661 49.06C94.6261 48.86 94.7061 48.6133 94.7061 48.32C94.7061 47.8533 94.6194 47.46 94.4461 47.14C94.2861 46.82 94.0461 46.58 93.7261 46.42C93.4194 46.2467 93.0528 46.16 92.6261 46.16C92.1728 46.16 91.7261 46.2933 91.2861 46.56C90.8594 46.8133 90.5061 47.2267 90.2261 47.8C89.9461 48.3733 89.8061 49.1467 89.8061 50.12C89.8061 50.9467 89.9394 51.6467 90.2061 52.22C90.4728 52.7933 90.8528 53.2267 91.3461 53.52C91.8528 53.8133 92.4528 53.96 93.1461 53.96C93.7728 53.96 94.3194 53.86 94.7861 53.66C95.2661 53.4467 95.7061 53.1133 96.1061 52.66L96.5261 53C96.2594 53.4533 95.9528 53.8533 95.6061 54.2C95.2728 54.5333 94.8728 54.7933 94.4061 54.98C93.9394 55.1667 93.3661 55.26 92.6861 55.26Z" fill="#424242"/>
<path d="M1 45V1H101V47" stroke="#424242"/>
<path d="M101 54V98L1 98V52" stroke="#424242"/>
</svg>
